<svg width="1228" height="417" viewBox="0 0 1228 417" fill="none" xmlns="http://www.w3.org/2000/svg">
<g clip-path="url(#clip0_10319_150776)">
<path d="M132.023 0H45.4252C44.4288 0 43.6211 0.807737 43.6211 1.80412V413.443H676.865V343.684C676.865 342.687 676.057 341.88 675.061 341.88H633.266C632.269 341.88 631.462 341.072 631.462 340.075V285.108C631.462 284.212 630.803 283.451 629.916 283.323L589.925 277.531C588.837 277.373 587.862 278.217 587.862 279.316V325.041C587.862 326.038 587.054 326.845 586.058 326.845H573.429C572.433 326.845 571.625 326.038 571.625 325.041V290.118C571.625 289.027 570.664 288.185 569.582 288.33L525.982 294.162C525.086 294.282 524.417 295.046 524.417 295.95V340.075C524.417 341.072 523.61 341.88 522.613 341.88H496.754C495.758 341.88 494.95 341.072 494.95 340.075V291.064C494.95 290.067 494.143 289.26 493.146 289.26H441.428C440.432 289.26 439.624 290.067 439.624 291.064V340.075C439.624 341.072 438.816 341.88 437.82 341.88H419.177C418.181 341.88 417.373 341.072 417.373 340.075V301.888C417.373 300.892 416.566 300.084 415.569 300.084H375.578C374.582 300.084 373.774 300.892 373.774 301.888V319.027C373.774 320.024 372.966 320.832 371.97 320.832H362.348C361.352 320.832 360.544 320.024 360.544 319.027V252.877C360.544 251.88 359.736 251.072 358.74 251.072H305.218C304.221 251.072 303.413 251.88 303.413 252.877V319.027C303.413 320.024 302.606 320.832 301.609 320.832H288.68C287.684 320.832 286.876 320.024 286.876 319.027V198.358C286.876 197.678 286.493 197.056 285.887 196.749L218.232 162.494C217.032 161.886 215.613 162.758 215.613 164.103V319.027C215.613 320.024 214.806 320.832 213.809 320.832H205.991C204.995 320.832 204.187 320.024 204.187 319.027V230.958C204.187 229.466 202.478 228.619 201.291 229.522L149.573 268.873C149.124 269.214 148.861 269.745 148.861 270.309V334.663C148.861 335.659 148.053 336.467 147.057 336.467H135.631C134.635 336.467 133.827 335.659 133.827 334.663V1.80411C133.827 0.807729 133.019 0 132.023 0Z" fill="#E7F2FF"/>
<path d="M1095.77 90H1182.37C1183.36 90 1184.17 90.8077 1184.17 91.8041V413.443H550.926V343.684C550.926 342.687 551.734 341.88 552.73 341.88H594.525C595.522 341.88 596.329 341.072 596.329 340.075V285.108C596.329 284.212 596.988 283.451 597.875 283.323L637.866 277.531C638.954 277.373 639.929 278.217 639.929 279.316V325.041C639.929 326.038 640.737 326.845 641.733 326.845H654.362C655.358 326.845 656.166 326.038 656.166 325.041V290.118C656.166 289.027 657.128 288.185 658.209 288.33L701.809 294.162C702.705 294.282 703.374 295.046 703.374 295.95V340.075C703.374 341.072 704.181 341.88 705.178 341.88H731.037C732.033 341.88 732.841 341.072 732.841 340.075V291.064C732.841 290.067 733.648 289.26 734.645 289.26H786.363C787.359 289.26 788.167 290.067 788.167 291.064V340.075C788.167 341.072 788.975 341.88 789.971 341.88H808.614C809.61 341.88 810.418 341.072 810.418 340.075V301.888C810.418 300.892 811.225 300.084 812.222 300.084H852.213C853.209 300.084 854.017 300.892 854.017 301.888V319.027C854.017 320.024 854.825 320.832 855.821 320.832H865.443C866.44 320.832 867.247 320.024 867.247 319.027V252.877C867.247 251.88 868.055 251.072 869.051 251.072H922.573C923.57 251.072 924.378 251.88 924.378 252.877V319.027C924.378 320.024 925.185 320.832 926.182 320.832H939.111C940.108 320.832 940.915 320.024 940.915 319.027V200.877C940.915 199.387 942.62 198.539 943.808 199.438L1011.46 250.626C1011.91 250.967 1012.18 251.5 1012.18 252.065V319.027C1012.18 320.024 1012.99 320.832 1013.98 320.832H1021.8C1022.8 320.832 1023.6 320.024 1023.6 319.027V230.958C1023.6 229.466 1025.31 228.619 1026.5 229.522L1078.22 268.873C1078.67 269.214 1078.93 269.745 1078.93 270.309V334.663C1078.93 335.659 1079.74 336.467 1080.73 336.467H1092.16C1093.16 336.467 1093.96 335.659 1093.96 334.663V91.8041C1093.96 90.8077 1094.77 90 1095.77 90Z" fill="#E7F2FF"/>
<path d="M1071.75 254.195C1071.75 215.106 1040.07 183.418 1000.98 183.418C1000.54 183.418 1000.19 183.77 1000.19 184.204V413.743H1071.75V254.195Z" fill="#9DCDFF"/>
<path d="M1053.71 273.023C1053.71 263.059 1061.79 254.981 1071.75 254.981V426.372C1061.79 426.372 1053.71 418.295 1053.71 408.331V273.023Z" fill="#6BB3FD"/>
<path d="M997.482 216.494H1038.98" stroke="white" stroke-width="1.80411"/>
<path d="M997.482 240.549H1038.98" stroke="white" stroke-width="1.80411"/>
<path d="M997.482 264.604H1038.98" stroke="white" stroke-width="1.80411"/>
<path d="M997.482 288.659H1038.98" stroke="white" stroke-width="1.80411"/>
<path d="M997.482 312.714H1038.98" stroke="white" stroke-width="1.80411"/>
<path d="M997.482 336.768H1038.98" stroke="white" stroke-width="1.80411"/>
<path d="M997.482 360.823H1038.98" stroke="white" stroke-width="1.80411"/>
<path d="M997.482 384.878H1038.98" stroke="white" stroke-width="1.80411"/>
<path d="M997.482 408.933H1038.98" stroke="white" stroke-width="1.80411"/>
<path d="M1017.03 217.096V409.534" stroke="white" stroke-width="1.80411"/>
<path d="M782.67 375.703V414.5V416.297C782.67 416.962 783.208 417.5 783.873 417.5H945.967C946.631 417.5 947.17 416.962 947.17 416.297V389.203C947.17 388.538 946.631 388 945.967 388H919.373C918.708 388 918.17 387.462 918.17 386.797V334.703C918.17 334.038 917.631 333.5 916.967 333.5H875.873C875.208 333.5 874.67 334.038 874.67 334.703V349.797C874.67 350.462 874.131 351 873.467 351H834.873C834.208 351 833.67 351.538 833.67 352.203V373.297C833.67 373.962 833.131 374.5 832.467 374.5H783.873C783.208 374.5 782.67 375.038 782.67 375.703Z" fill="#6BB3FD"/>
<path d="M667.993 223.109C667.993 218.844 667.153 214.621 665.521 210.682C663.889 206.742 661.497 203.162 658.482 200.146C655.466 197.131 651.886 194.739 647.946 193.107C644.006 191.475 639.784 190.635 635.519 190.635C631.254 190.635 627.032 191.475 623.092 193.107C619.152 194.739 615.572 197.131 612.556 200.146C609.541 203.162 607.149 206.742 605.517 210.682C603.885 214.621 603.045 218.844 603.045 223.109L635.519 223.109H667.993Z" fill="#E6F2FF"/>
<path d="M620.031 223.109C620.031 220.879 619.592 218.67 618.738 216.609C617.885 214.548 616.634 212.675 615.056 211.098C613.479 209.521 611.606 208.269 609.545 207.416C607.485 206.562 605.276 206.123 603.045 206.123C600.814 206.123 598.605 206.562 596.545 207.416C594.484 208.269 592.611 209.521 591.034 211.098C589.456 212.675 588.205 214.548 587.352 216.609C586.498 218.67 586.059 220.879 586.059 223.109L603.045 223.109H620.031Z" fill="#E6F2FF"/>
<path d="M593.275 223.109C593.275 221.845 593.026 220.594 592.543 219.426C592.059 218.259 591.35 217.198 590.457 216.305C589.563 215.411 588.503 214.703 587.335 214.219C586.168 213.735 584.917 213.487 583.653 213.487C582.39 213.487 581.138 213.735 579.971 214.219C578.804 214.703 577.743 215.411 576.849 216.305C575.956 217.198 575.247 218.259 574.764 219.426C574.28 220.594 574.031 221.845 574.031 223.109L583.653 223.109H593.275Z" fill="#E6F2FF"/>
<path d="M689.496 223.109C689.496 221.845 689.247 220.594 688.763 219.426C688.28 218.259 687.571 217.198 686.678 216.305C685.784 215.411 684.723 214.703 683.556 214.219C682.389 213.735 681.137 213.487 679.874 213.487C678.61 213.487 677.359 213.735 676.192 214.219C675.024 214.703 673.964 215.411 673.07 216.305C672.177 217.198 671.468 218.259 670.984 219.426C670.501 220.594 670.252 221.845 670.252 223.109L679.874 223.109H689.496Z" fill="#E6F2FF"/>
<path d="M699.717 223.109C699.717 221.845 699.468 220.594 698.984 219.426C698.501 218.259 697.792 217.198 696.898 216.305C696.005 215.411 694.944 214.703 693.777 214.219C692.609 213.735 691.358 213.487 690.095 213.487C688.831 213.487 687.58 213.735 686.412 214.219C685.245 214.703 684.184 215.411 683.291 216.305C682.397 217.198 681.689 218.259 681.205 219.426C680.722 220.594 680.473 221.845 680.473 223.109L690.095 223.109H699.717Z" fill="#E6F2FF"/>
<path d="M677.985 222.859C677.985 220.201 677.462 217.57 676.445 215.115C675.428 212.661 673.938 210.43 672.059 208.551C670.18 206.672 667.949 205.182 665.495 204.165C663.04 203.148 660.409 202.625 657.751 202.625C655.094 202.625 652.463 203.148 650.008 204.165C647.553 205.182 645.323 206.672 643.444 208.551C641.565 210.43 640.075 212.661 639.058 215.115C638.041 217.57 637.518 220.201 637.518 222.859L657.751 222.859H677.985Z" fill="#E6F2FF"/>
<path d="M902.526 102.834C902.526 98.5698 901.686 94.347 900.054 90.4071C898.422 86.4672 896.03 82.8873 893.015 79.8718C889.999 76.8563 886.419 74.4643 882.479 72.8323C878.54 71.2003 874.317 70.3604 870.052 70.3604C865.788 70.3604 861.565 71.2003 857.625 72.8323C853.685 74.4643 850.105 76.8563 847.09 79.8718C844.074 82.8873 841.682 86.4672 840.05 90.4071C838.418 94.3471 837.578 98.5698 837.578 102.834L870.052 102.834H902.526Z" fill="#E6F2FF"/>
<path d="M854.565 102.835C854.565 100.604 854.125 98.395 853.272 96.3341C852.418 94.2733 851.167 92.4007 849.589 90.8234C848.012 89.246 846.14 87.9948 844.079 87.1412C842.018 86.2875 839.809 85.8481 837.578 85.8481C835.348 85.8481 833.139 86.2875 831.078 87.1412C829.017 87.9948 827.144 89.246 825.567 90.8234C823.99 92.4007 822.738 94.2733 821.885 96.3341C821.031 98.395 820.592 100.604 820.592 102.835L837.578 102.835H854.565Z" fill="#E6F2FF"/>
<path d="M827.808 102.834C827.808 101.571 827.559 100.32 827.076 99.1522C826.592 97.9848 825.884 96.9241 824.99 96.0306C824.097 95.1371 823.036 94.4284 821.869 93.9448C820.701 93.4613 819.45 93.2124 818.186 93.2124C816.923 93.2124 815.672 93.4613 814.504 93.9448C813.337 94.4284 812.276 95.1371 811.383 96.0306C810.489 96.9241 809.78 97.9848 809.297 99.1522C808.813 100.32 808.564 101.571 808.564 102.834L818.186 102.834H827.808Z" fill="#E6F2FF"/>
<path d="M912.516 102.585C912.516 99.9278 911.993 97.2966 910.976 94.8418C909.959 92.3869 908.469 90.1563 906.59 88.2774C904.711 86.3985 902.481 84.9081 900.026 83.8913C897.571 82.8744 894.94 82.3511 892.283 82.3511C889.626 82.3511 886.994 82.8744 884.54 83.8913C882.085 84.9081 879.854 86.3985 877.975 88.2774C876.096 90.1563 874.606 92.3869 873.589 94.8418C872.572 97.2966 872.049 99.9278 872.049 102.585L892.283 102.585H912.516Z" fill="#E6F2FF"/>
<path d="M43.6211 180.411C43.6211 179.747 44.1596 179.208 44.8238 179.208H107.366C108.031 179.208 108.569 179.747 108.569 180.411V413.743H43.6211V180.411Z" fill="#9DCDFF"/>
<path d="M74.8906 108.247C74.8906 107.582 75.4291 107.044 76.0934 107.044H145.852C146.517 107.044 147.055 107.582 147.055 108.247V413.743H74.8906V108.247Z" fill="#9DCDFF"/>
<path d="M34 163.573C34 162.909 34.5385 162.37 35.2027 162.37H147.659C148.323 162.37 148.862 162.909 148.862 163.573V188.83C148.862 189.495 148.323 190.033 147.659 190.033H35.2027C34.5385 190.033 34 189.495 34 188.83V163.573Z" fill="#6BB3FD"/>
<path d="M34 196.047C34 195.383 34.5385 194.845 35.2027 194.845H147.659C148.323 194.845 148.862 195.383 148.862 196.047V221.305C148.862 221.969 148.323 222.508 147.659 222.508H35.2027C34.5385 222.508 34 221.969 34 221.305V196.047Z" fill="#6BB3FD"/>
<path d="M34 228.521C34 227.857 34.5385 227.318 35.2027 227.318H147.659C148.323 227.318 148.862 227.857 148.862 228.521V253.779C148.862 254.443 148.323 254.981 147.659 254.981H35.2027C34.5385 254.981 34 254.443 34 253.779V228.521Z" fill="#6BB3FD"/>
<path d="M34 260.995C34 260.331 34.5385 259.792 35.2027 259.792H147.659C148.323 259.792 148.862 260.331 148.862 260.995V286.253C148.862 286.917 148.323 287.456 147.659 287.456H35.2027C34.5385 287.456 34 286.917 34 286.253V260.995Z" fill="#6BB3FD"/>
<path d="M34 293.47C34 292.806 34.5385 292.267 35.2027 292.267H147.659C148.323 292.267 148.862 292.806 148.862 293.47V318.727C148.862 319.392 148.323 319.93 147.659 319.93H35.2027C34.5385 319.93 34 319.392 34 318.727V293.47Z" fill="#6BB3FD"/>
<path d="M34 325.944C34 325.28 34.5385 324.741 35.2027 324.741H147.659C148.323 324.741 148.862 325.28 148.862 325.944V351.202C148.862 351.866 148.323 352.404 147.659 352.404H35.2027C34.5385 352.404 34 351.866 34 351.202V325.944Z" fill="#6BB3FD"/>
<path d="M34 358.418C34 357.753 34.5385 357.215 35.2027 357.215H147.659C148.323 357.215 148.862 357.753 148.862 358.418V383.675C148.862 384.339 148.323 384.878 147.659 384.878H35.2027C34.5385 384.878 34 384.339 34 383.675V358.418Z" fill="#6BB3FD"/>
<path d="M34 390.891C34 390.227 34.5385 389.688 35.2027 389.688H147.659C148.323 389.688 148.862 390.227 148.862 390.891V416.149C148.862 416.813 148.323 417.352 147.659 417.352H35.2027C34.5385 417.352 34 416.813 34 416.149V390.891Z" fill="#6BB3FD"/>
<path d="M70.6816 131.099C70.6816 130.435 71.2201 129.896 71.8844 129.896H147.657C148.321 129.896 148.86 130.435 148.86 131.099V156.357C148.86 157.021 148.321 157.56 147.657 157.56H71.8844C71.2201 157.56 70.6816 157.021 70.6816 156.357V131.099Z" fill="#6BB3FD"/>
<path d="M233.777 361.451H244.354L243.296 409.051L245.412 414.34H232.719L234.834 409.051L233.777 361.451Z" fill="#6A450E"/>
<path d="M261.28 359.888C261.28 386.176 251.335 391.074 239.067 391.074C226.799 391.074 216.854 386.176 216.854 359.888C216.854 333.599 226.799 295.875 239.067 295.875C251.335 295.875 261.28 333.599 261.28 359.888Z" fill="#117765"/>
<path d="M70.6816 98.6246C70.6816 97.9604 71.2201 97.4219 71.8844 97.4219H147.657C148.321 97.4219 148.86 97.9604 148.86 98.6246V123.882C148.86 124.546 148.321 125.085 147.657 125.085H71.8844C71.2201 125.085 70.6816 124.546 70.6816 123.882V98.6246Z" fill="#6BB3FD"/>
<path d="M242.074 252.576C242.074 251.912 242.613 251.374 243.277 251.374H320.252C320.917 251.374 321.455 251.912 321.455 252.576V499.74H242.074V252.576Z" fill="#9DCDFF"/>
<path d="M242.274 252.749C242.169 252.024 242.731 251.374 243.464 251.374H320.065C320.798 251.374 321.361 252.024 321.255 252.749L285.373 499.74H278.156L242.274 252.749Z" fill="#6BB3FD"/>
<path d="M333.48 354.577C333.48 354.01 333.876 353.521 334.429 353.401L443.277 329.866C444.027 329.704 444.734 330.275 444.734 331.042V577.918H333.48V354.577Z" fill="#9DCDFF"/>
<path d="M424.889 366.837C424.889 366.172 425.427 365.634 426.091 365.634H534.94C535.604 365.634 536.142 366.172 536.142 366.837V614H424.889V366.837Z" fill="#9DCDFF"/>
<path d="M548.172 419.831C548.172 369.971 588.592 329.551 638.452 329.551C639.075 329.551 639.58 330.057 639.58 330.68V577.918H548.172V419.831Z" fill="#9DCDFF"/>
<path d="M570.42 428.414C570.42 385.771 604.989 351.201 647.633 351.201C648.166 351.201 648.598 351.633 648.598 352.166V563.485H570.42V428.414Z" fill="#6BB3FD"/>
<path d="M620.938 433.537C620.938 404.67 644.338 381.27 673.205 381.27C673.566 381.27 673.858 381.562 673.858 381.923V524.997H620.938V433.537Z" fill="#6BB3FD"/>
<path d="M74.2891 117.868V410.736" stroke="#6BB3FD" stroke-width="1.80411"/>
<path d="M98.3438 117.868V410.736" stroke="#6BB3FD" stroke-width="1.80411"/>
<path d="M122.398 117.868V410.736" stroke="#6BB3FD" stroke-width="1.80411"/>
<path d="M146.453 117.868V410.736" stroke="#6BB3FD" stroke-width="1.80411"/>
<path d="M1184.17 180.203C1184.17 179.538 1183.63 179 1182.97 179H1083.37C1082.71 179 1082.17 179.538 1082.17 180.203V414H1184.17V180.203Z" fill="#9DCDFF"/>
<path d="M1194.17 163.573C1194.17 162.909 1193.63 162.37 1192.97 162.37H1080.51C1079.85 162.37 1079.31 162.909 1079.31 163.573V188.83C1079.31 189.495 1079.85 190.033 1080.51 190.033H1192.97C1193.63 190.033 1194.17 189.495 1194.17 188.83V163.573Z" fill="#6BB3FD"/>
<path d="M1194.17 196.047C1194.17 195.383 1193.63 194.845 1192.97 194.845H1080.51C1079.85 194.845 1079.31 195.383 1079.31 196.047V221.305C1079.31 221.969 1079.85 222.508 1080.51 222.508H1192.97C1193.63 222.508 1194.17 221.969 1194.17 221.305V196.047Z" fill="#6BB3FD"/>
<path d="M1194.17 228.521C1194.17 227.857 1193.63 227.318 1192.97 227.318H1080.51C1079.85 227.318 1079.31 227.857 1079.31 228.521V253.779C1079.31 254.443 1079.85 254.981 1080.51 254.981H1192.97C1193.63 254.981 1194.17 254.443 1194.17 253.779V228.521Z" fill="#6BB3FD"/>
<path d="M1194.17 260.995C1194.17 260.331 1193.63 259.792 1192.97 259.792H1080.51C1079.85 259.792 1079.31 260.331 1079.31 260.995V286.253C1079.31 286.917 1079.85 287.456 1080.51 287.456H1192.97C1193.63 287.456 1194.17 286.917 1194.17 286.253V260.995Z" fill="#6BB3FD"/>
<path d="M1194.17 293.47C1194.17 292.806 1193.63 292.267 1192.97 292.267H1080.51C1079.85 292.267 1079.31 292.806 1079.31 293.47V318.727C1079.31 319.392 1079.85 319.93 1080.51 319.93H1192.97C1193.63 319.93 1194.17 319.392 1194.17 318.727V293.47Z" fill="#6BB3FD"/>
<path d="M1194.17 325.944C1194.17 325.28 1193.63 324.741 1192.97 324.741H1080.51C1079.85 324.741 1079.31 325.28 1079.31 325.944V351.202C1079.31 351.866 1079.85 352.404 1080.51 352.404H1192.97C1193.63 352.404 1194.17 351.866 1194.17 351.202V325.944Z" fill="#6BB3FD"/>
<path d="M1194.17 358.418C1194.17 357.753 1193.63 357.215 1192.97 357.215H1080.51C1079.85 357.215 1079.31 357.753 1079.31 358.418V383.675C1079.31 384.339 1079.85 384.878 1080.51 384.878H1192.97C1193.63 384.878 1194.17 384.339 1194.17 383.675V358.418Z" fill="#6BB3FD"/>
<path d="M1194.17 390.891C1194.17 390.227 1193.63 389.688 1192.97 389.688H1080.51C1079.85 389.688 1079.31 390.227 1079.31 390.891V416.149C1079.31 416.813 1079.85 417.352 1080.51 417.352H1192.97C1193.63 417.352 1194.17 416.813 1194.17 416.149V390.891Z" fill="#6BB3FD"/>
<path d="M986.096 252.576C986.096 251.912 985.557 251.374 984.893 251.374H907.917C907.253 251.374 906.715 251.912 906.715 252.576V499.74H986.096V252.576Z" fill="#9DCDFF"/>
<path d="M985.896 252.749C986.001 252.024 985.439 251.374 984.706 251.374H908.105C907.372 251.374 906.809 252.024 906.915 252.749L942.797 499.74H950.013L985.896 252.749Z" fill="#6BB3FD"/>
<path d="M1154.17 173V411" stroke="#6BB3FD" stroke-width="1.80411"/>
<path d="M1130.17 173V411" stroke="#6BB3FD" stroke-width="1.80411"/>
<path d="M1106.17 173V411" stroke="#6BB3FD" stroke-width="1.80411"/>
<path d="M1082.17 173V411" stroke="#6BB3FD" stroke-width="1.80411"/>
<rect x="435.113" y="361.424" width="107.044" height="42.6974" rx="1.20274" fill="#6BB3FD"/>
<path d="M338.293 331.957H436.918" stroke="#6BB3FD" stroke-width="1.80411"/>
<path d="M338.293 356.012H436.918" stroke="#6BB3FD" stroke-width="1.80411"/>
<path d="M338.293 380.066H436.918" stroke="#6BB3FD" stroke-width="1.80411"/>
<path d="M338.293 404.122H436.918" stroke="#6BB3FD" stroke-width="1.80411"/>
<path d="M356.033 328.95V524.395" stroke="#6BB3FD" stroke-width="1.80411"/>
<path d="M380.088 328.95V524.395" stroke="#6BB3FD" stroke-width="1.80411"/>
<path d="M404.143 328.95V524.395" stroke="#6BB3FD" stroke-width="1.80411"/>
<path d="M428.197 328.95V524.395" stroke="#6BB3FD" stroke-width="1.80411"/>
<path d="M158.482 254.195C158.482 215.106 190.17 183.418 229.259 183.418C229.694 183.418 230.046 183.77 230.046 184.204V413.743H158.482V254.195Z" fill="#9DCDFF"/>
<path d="M176.523 273.023C176.523 263.059 168.446 254.981 158.482 254.981V426.372C168.446 426.372 176.523 418.295 176.523 408.331V273.023Z" fill="#6BB3FD"/>
<path d="M232.754 216.494H191.259" stroke="white" stroke-width="1.80411"/>
<path d="M232.754 240.549H191.259" stroke="white" stroke-width="1.80411"/>
<path d="M232.754 264.604H191.259" stroke="white" stroke-width="1.80411"/>
<path d="M232.754 288.659H191.259" stroke="white" stroke-width="1.80411"/>
<path d="M232.754 312.714H191.259" stroke="white" stroke-width="1.80411"/>
<path d="M232.754 336.768H191.259" stroke="white" stroke-width="1.80411"/>
<path d="M232.754 360.823H191.259" stroke="white" stroke-width="1.80411"/>
<path d="M232.754 384.878H191.259" stroke="white" stroke-width="1.80411"/>
<path d="M232.754 408.933H191.259" stroke="white" stroke-width="1.80411"/>
<path d="M213.209 217.096V409.534" stroke="white" stroke-width="1.80411"/>
<path d="M143.447 384.277H149.461L148.859 411.339L150.062 414.346H142.846L144.048 411.339L143.447 384.277Z" fill="#6A450E"/>
<path d="M162.091 377.475C162.091 397.403 154.552 401.115 145.252 401.115C135.953 401.115 128.414 397.403 128.414 377.475C128.414 357.547 135.953 328.951 145.252 328.951C154.552 328.951 162.091 357.547 162.091 377.475Z" fill="#158974"/>
<path d="M178.326 384.277H184.34L183.738 411.339L184.941 414.346H177.725L178.927 411.339L178.326 384.277Z" fill="#6A450E"/>
<path d="M196.97 377.475C196.97 397.403 189.431 401.115 180.131 401.115C170.832 401.115 163.293 397.403 163.293 377.475C163.293 357.547 170.832 328.951 180.131 328.951C189.431 328.951 196.97 357.547 196.97 377.475Z" fill="#158974"/>
<path d="M327.465 384.276H333.478L332.877 411.338L334.08 414.344H326.863L328.066 411.338L327.465 384.276Z" fill="#6A450E"/>
<path d="M343.101 383.384C343.101 398.33 337.447 401.114 330.473 401.114C323.498 401.114 317.844 398.33 317.844 383.384C317.844 368.438 323.498 346.991 330.473 346.991C337.447 346.991 343.101 368.438 343.101 383.384Z" fill="#158974"/>
<path d="M1097.46 384.276H1103.48L1102.88 411.338L1104.08 414.344H1096.86L1098.07 411.338L1097.46 384.276Z" fill="#6A450E"/>
<path d="M1113.1 383.384C1113.1 398.33 1107.45 401.114 1100.47 401.114C1093.5 401.114 1087.84 398.33 1087.84 383.384C1087.84 368.438 1093.5 346.991 1100.47 346.991C1107.45 346.991 1113.1 368.438 1113.1 383.384Z" fill="#158974"/>
<path d="M436.95 396.626H440.494L440.139 412.573L440.848 414.345H436.596L437.304 412.573L436.95 396.626Z" fill="#6A450E"/>
<path d="M446.163 396.101C446.163 404.908 442.831 406.549 438.721 406.549C434.611 406.549 431.279 404.908 431.279 396.101C431.279 387.294 434.611 374.655 438.721 374.655C442.831 374.655 446.163 387.294 446.163 396.101Z" fill="#158974"/>
<path d="M672.95 396.626H676.494L676.139 412.573L676.848 414.345H672.596L673.304 412.573L672.95 396.626Z" fill="#6A450E"/>
<path d="M682.163 396.101C682.163 404.908 678.831 406.549 674.721 406.549C670.611 406.549 667.279 404.908 667.279 396.101C667.279 387.294 670.611 374.655 674.721 374.655C678.831 374.655 682.163 387.294 682.163 396.101Z" fill="#158974"/>
<path d="M1003.78 380.125H1010.42L1009.76 410.023L1011.09 413.345H1003.12L1004.44 410.023L1003.78 380.125Z" fill="#6A450E"/>
<path d="M1024.38 372.61C1024.38 394.627 1016.05 398.728 1005.77 398.728C995.499 398.728 987.17 394.627 987.17 372.61C987.17 350.594 995.499 319 1005.77 319C1016.05 319 1024.38 350.594 1024.38 372.61Z" fill="#158974"/>
<path d="M1047.36 416.467C1047.36 421.781 1051.28 422.771 1056.12 422.771C1060.97 422.771 1064.89 421.781 1064.89 416.467C1064.89 411.153 1060.97 403.527 1056.12 403.527C1051.28 403.527 1047.36 411.153 1047.36 416.467Z" fill="#158974"/>
<path d="M1039.17 413.418C1039.17 416.74 1041.62 417.358 1044.65 417.358C1047.67 417.358 1050.13 416.74 1050.13 413.418C1050.13 410.097 1047.67 405.331 1044.65 405.331C1041.62 405.331 1039.17 410.097 1039.17 413.418Z" fill="#158974"/>
<path d="M128.412 416.304C128.412 423.777 122.893 425.169 116.084 425.169C109.275 425.169 103.756 423.777 103.756 416.304C103.756 408.832 109.275 398.108 116.084 398.108C122.893 398.108 128.412 408.832 128.412 416.304Z" fill="#158974"/>
<path d="M113.377 410.892C113.377 418.365 107.857 419.757 101.049 419.757C94.2402 419.757 88.7207 418.365 88.7207 410.892C88.7207 403.419 94.2402 392.695 101.049 392.695C107.857 392.695 113.377 403.419 113.377 410.892Z" fill="#158974"/>
<path d="M540.352 419.467C540.352 424.781 536.427 425.771 531.585 425.771C526.743 425.771 522.818 424.781 522.818 419.467C522.818 414.153 526.743 406.527 531.585 406.527C536.427 406.527 540.352 414.153 540.352 419.467Z" fill="#158974"/>
<path d="M548.54 416.418C548.54 419.74 546.087 420.358 543.061 420.358C540.035 420.358 537.582 419.74 537.582 416.418C537.582 413.097 540.035 408.331 543.061 408.331C546.087 408.331 548.54 413.097 548.54 416.418Z" fill="#158974"/>
<path d="M93.5335 418.264C93.5335 423.578 89.6295 424.568 84.8136 424.568C79.9978 424.568 76.0938 423.578 76.0938 418.264C76.0938 412.95 79.9978 405.324 84.8136 405.324C89.6295 405.324 93.5335 412.95 93.5335 418.264Z" fill="#158974"/>
<path d="M234.72 413.578C234.72 417.529 231.802 418.265 228.202 418.265C224.602 418.265 221.684 417.529 221.684 413.578C221.684 409.627 224.602 403.957 228.202 403.957C231.802 403.957 234.72 409.627 234.72 413.578Z" fill="#158974"/>
<path d="M223.629 413.868C223.629 416.678 221.565 417.201 219.019 417.201C216.472 417.201 214.408 416.678 214.408 413.868C214.408 411.058 216.472 407.026 219.019 407.026C221.565 407.026 223.629 411.058 223.629 413.868Z" fill="#158974"/>
<path d="M814.488 416.304C814.488 423.777 808.969 425.169 802.16 425.169C795.352 425.169 789.832 423.777 789.832 416.304C789.832 408.832 795.352 398.108 802.16 398.108C808.969 398.108 814.488 408.832 814.488 416.304Z" fill="#158974"/>
<path d="M799.453 410.892C799.453 418.365 793.934 419.757 787.125 419.757C780.316 419.757 774.797 418.365 774.797 410.892C774.797 403.419 780.316 392.695 787.125 392.695C793.934 392.695 799.453 403.419 799.453 410.892Z" fill="#158974"/>
<path d="M779.61 418.264C779.61 423.578 775.706 424.568 770.89 424.568C766.074 424.568 762.17 423.578 762.17 418.264C762.17 412.95 766.074 405.324 770.89 405.324C775.706 405.324 779.61 412.95 779.61 418.264Z" fill="#158974"/>
<rect x="677.17" y="353" width="97" height="104" rx="1.20274" fill="#6BB3FD"/>
<rect width="97" height="21" rx="1.20274" transform="matrix(1 0 0 -1 677.17 348)" fill="#6BB3FD"/>
<rect width="75" height="21" rx="1.20274" transform="matrix(1 0 0 -1 688.17 363)" fill="#9DCDFF"/>
<rect width="75" height="21" rx="1.20274" transform="matrix(1 0 0 -1 688.17 393)" fill="#9DCDFF"/>
<rect width="75" height="21" rx="1.20274" transform="matrix(1 0 0 -1 688.17 423)" fill="#9DCDFF"/>
<path d="M165.534 53.5214C165.534 49.2569 166.374 45.0341 168.006 41.0941C169.638 37.1542 172.03 33.5743 175.046 30.5588C178.061 27.5433 181.641 25.1513 185.581 23.5193C189.521 21.8873 193.744 21.0474 198.008 21.0474C202.273 21.0474 206.496 21.8873 210.436 23.5193C214.376 25.1513 217.956 27.5433 220.971 30.5588C223.986 33.5743 226.379 37.1542 228.01 41.0941C229.642 45.0341 230.482 49.2569 230.482 53.5214L198.008 53.5214H165.534Z" fill="#E6F2FF"/>
<path d="M213.496 53.5218C213.496 51.2911 213.935 49.0823 214.789 47.0214C215.643 44.9605 216.894 43.0879 218.471 41.5106C220.048 39.9333 221.921 38.6821 223.982 37.8284C226.043 36.9748 228.252 36.5354 230.482 36.5354C232.713 36.5354 234.922 36.9748 236.983 37.8284C239.044 38.6821 240.916 39.9333 242.494 41.5106C244.071 43.0879 245.322 44.9605 246.176 47.0214C247.029 49.0823 247.469 51.2911 247.469 53.5218L230.482 53.5218H213.496Z" fill="#E6F2FF"/>
<path d="M240.252 53.5211C240.252 52.2575 240.501 51.0063 240.985 49.839C241.468 48.6716 242.177 47.6109 243.07 46.7174C243.964 45.8239 245.025 45.1151 246.192 44.6316C247.359 44.148 248.611 43.8992 249.874 43.8992C251.138 43.8992 252.389 44.148 253.556 44.6316C254.724 45.1151 255.784 45.8239 256.678 46.7174C257.571 47.6109 258.28 48.6716 258.764 49.839C259.247 51.0063 259.496 52.2575 259.496 53.5211L249.874 53.5211H240.252Z" fill="#E6F2FF"/>
<path d="M155.542 53.2712C155.542 50.614 156.065 47.9829 157.082 45.528C158.099 43.0731 159.59 40.8426 161.468 38.9637C163.347 37.0848 165.578 35.5944 168.033 34.5776C170.488 33.5607 173.119 33.0374 175.776 33.0374C178.433 33.0374 181.064 33.5607 183.519 34.5776C185.974 35.5944 188.205 37.0848 190.083 38.9637C191.962 40.8426 193.453 43.0731 194.47 45.528C195.486 47.9829 196.01 50.614 196.01 53.2712L175.776 53.2712H155.542Z" fill="#E6F2FF"/>
<path d="M1180.26 419.467C1180.26 424.781 1176.33 425.771 1171.49 425.771C1166.65 425.771 1162.73 424.781 1162.73 419.467C1162.73 414.153 1166.65 406.527 1171.49 406.527C1176.33 406.527 1180.26 414.153 1180.26 419.467Z" fill="#158974"/>
<path d="M1188.45 416.418C1188.45 419.74 1185.99 420.358 1182.97 420.358C1179.94 420.358 1177.49 419.74 1177.49 416.418C1177.49 413.097 1179.94 408.331 1182.97 408.331C1185.99 408.331 1188.45 413.097 1188.45 416.418Z" fill="#158974"/>
<rect y="412" width="1228" height="5" rx="2.5" fill="#3E92E7"/>
</g>
<defs>
<clipPath id="clip0_10319_150776">
<rect width="1228" height="417" fill="white"/>
</clipPath>
</defs>
</svg>
