<?xml version="1.0" standalone="no"?>
<!DOCTYPE svg PUBLIC "-//W3C//DTD SVG 20010904//EN"
 "http://www.w3.org/TR/2001/REC-SVG-20010904/DTD/svg10.dtd">
<svg version="1.0" xmlns="http://www.w3.org/2000/svg"
 width="4134.000000pt" height="3543.000000pt" viewBox="0 0 4134.000000 3543.000000"
 preserveAspectRatio="xMidYMid meet">

<g transform="translate(0.000000,3543.000000) scale(0.100000,-0.100000)"
fill="#000000" stroke="none">
<path d="M26518 29088 c-2 -183 -2 -474 0 -645 l3 -313 2900 0 2899 0 0 645 0
645 -2899 0 -2900 0 -3 -332z m5757 -313 l0 -600 -2855 0 -2855 0 -3 590 c-1
325 0 596 3 603 3 10 580 12 2857 10 l2853 -3 0 -600z"/>
<path d="M30260 29207 c-28 -14 -50 -51 -50 -84 0 -14 -6 -23 -15 -23 -8 0
-15 -7 -15 -15 0 -8 7 -15 15 -15 12 0 15 -18 15 -105 0 -98 1 -105 20 -105
19 0 20 7 20 105 l0 105 30 0 c20 0 30 5 30 15 0 10 -10 15 -31 15 -30 0 -31
1 -25 33 7 37 33 60 59 53 13 -3 17 0 15 12 -4 22 -36 26 -68 9z"/>
<path d="M29090 29146 l0 -65 -34 14 c-43 18 -100 4 -122 -30 -36 -55 -26
-159 19 -190 31 -22 89 -19 121 6 l26 20 0 -20 c0 -12 6 -21 15 -21 13 0 15
26 15 175 0 168 -1 175 -20 175 -18 0 -20 -7 -20 -64z m-26 -87 c22 -18 26
-28 26 -75 0 -63 -23 -94 -68 -94 -43 0 -67 33 -67 92 0 42 4 53 28 74 34 29
47 30 81 3z"/>
<path d="M31310 29080 c0 -176 25 -220 123 -220 42 0 54 5 82 33 38 38 48 90
43 222 -3 72 -5 80 -23 80 -19 0 -20 -8 -25 -131 -6 -147 -17 -174 -72 -174
-72 0 -88 37 -88 196 0 107 -1 114 -20 114 -19 0 -20 -7 -20 -120z"/>
<path d="M31643 29193 c-10 -3 -13 -47 -13 -169 0 -157 1 -164 20 -164 18 0
20 7 20 71 0 65 1 70 20 64 31 -10 97 13 119 42 23 28 27 82 10 115 -20 36
-126 62 -176 41z m110 -34 c30 -16 37 -28 37 -65 0 -40 -29 -66 -77 -68 l-38
-1 -3 73 -3 72 31 0 c17 0 41 -5 53 -11z"/>
<path d="M27175 29181 c-68 -28 -98 -165 -56 -258 22 -47 45 -63 93 -63 59 1
92 41 104 127 17 132 -54 229 -141 194z m79 -54 c16 -22 20 -42 20 -100 0 -92
-21 -137 -64 -137 -38 0 -59 31 -67 98 -7 64 2 113 28 147 26 32 55 30 83 -8z"/>
<path d="M27425 29181 c-68 -28 -98 -165 -56 -258 22 -47 45 -63 93 -63 59 1
92 41 104 127 17 132 -54 229 -141 194z m79 -54 c16 -22 20 -42 20 -100 0 -92
-21 -137 -64 -137 -38 0 -59 31 -67 98 -7 64 2 113 28 147 26 32 55 30 83 -8z"/>
<path d="M27685 29181 c-68 -28 -98 -165 -56 -258 22 -47 45 -63 93 -63 59 1
92 41 104 127 17 132 -54 229 -141 194z m79 -54 c16 -22 20 -42 20 -100 0 -92
-21 -137 -64 -137 -38 0 -59 31 -67 98 -7 64 2 113 28 147 26 32 55 30 83 -8z"/>
<path d="M26903 29162 c-23 -12 -30 -21 -24 -31 7 -10 13 -10 29 -2 11 6 23
11 26 11 3 0 6 -63 6 -140 0 -133 1 -140 20 -140 19 0 20 7 20 160 0 159 0
160 -22 160 -13 -1 -37 -9 -55 -18z"/>
<path d="M28513 29163 c-7 -2 -13 -18 -13 -34 0 -22 -5 -29 -20 -29 -11 0 -20
-7 -20 -15 0 -8 9 -15 20 -15 18 0 20 -7 20 -88 0 -101 12 -122 68 -122 40 0
44 27 5 32 -28 3 -28 3 -31 91 l-3 87 31 0 c20 0 30 5 30 15 0 10 -10 15 -30
15 -28 0 -30 3 -30 35 0 35 -3 38 -27 28z"/>
<path d="M29763 29163 c-7 -2 -13 -18 -13 -34 0 -22 -5 -29 -20 -29 -11 0 -20
-7 -20 -15 0 -8 9 -15 20 -15 18 0 20 -7 20 -88 0 -101 12 -122 68 -122 40 0
44 27 5 32 -28 3 -28 3 -31 91 l-3 87 31 0 c20 0 30 5 30 15 0 10 -10 15 -30
15 -28 0 -30 3 -30 35 0 35 -3 38 -27 28z"/>
<path d="M27980 29065 l0 -55 -55 0 c-42 0 -55 -3 -55 -15 0 -12 13 -15 55
-15 l55 0 0 -60 c0 -47 3 -60 15 -60 12 0 15 13 15 60 l0 60 61 0 c81 0 77 24
-4 28 l-57 3 0 54 c0 42 -4 55 -15 55 -12 0 -15 -13 -15 -55z"/>
<path d="M28335 29103 c-32 -8 -55 -34 -55 -63 0 -29 18 -49 66 -73 65 -33 50
-82 -23 -74 -44 5 -67 -8 -42 -24 19 -12 86 -11 110 2 28 14 41 54 28 82 -6
13 -31 34 -55 45 -30 15 -44 28 -44 42 0 27 32 42 64 30 23 -8 26 -7 26 10 0
11 -6 20 -14 20 -8 0 -20 2 -28 4 -7 2 -22 1 -33 -1z"/>
<path d="M29274 29103 c-12 -2 -34 -17 -49 -33 -22 -23 -29 -42 -33 -85 -4
-52 -3 -56 31 -90 31 -31 41 -35 85 -35 59 0 82 7 76 23 -3 8 -23 11 -58 9
-48 -3 -55 -1 -75 24 -38 48 -30 54 65 54 l87 0 -6 42 c-9 65 -61 104 -123 91z
m66 -43 c11 -11 20 -29 20 -40 0 -18 -7 -20 -65 -20 -74 0 -83 13 -40 55 29
30 58 32 85 5z"/>
<path d="M29544 29100 c-12 -5 -25 -13 -29 -19 -9 -16 -25 -13 -25 4 0 8 -7
15 -15 15 -12 0 -15 -20 -15 -120 0 -113 1 -120 20 -120 18 0 20 7 20 88 0 98
12 122 63 122 42 0 57 -33 57 -127 0 -76 2 -83 20 -83 19 0 20 7 20 94 0 84
-3 98 -22 120 -26 29 -63 39 -94 26z"/>
<path d="M29945 29103 c-32 -8 -55 -34 -55 -63 0 -29 18 -49 66 -73 65 -33 50
-82 -23 -74 -44 5 -67 -8 -42 -24 19 -12 86 -11 110 2 28 14 41 54 28 82 -6
13 -31 34 -55 45 -30 15 -44 28 -44 42 0 27 32 42 64 30 23 -8 26 -7 26 10 0
11 -6 20 -14 20 -8 0 -20 2 -28 4 -7 2 -22 1 -33 -1z"/>
<path d="M30411 29084 c-30 -25 -31 -25 -31 -5 0 12 -6 21 -15 21 -12 0 -15
-20 -15 -120 0 -113 1 -120 20 -120 18 0 20 7 20 83 0 74 3 86 23 105 13 12
29 22 35 22 7 0 12 9 12 20 0 27 -12 25 -49 -6z"/>
<path d="M30574 29099 c-16 -5 -41 -20 -55 -35 -20 -21 -24 -36 -24 -86 0 -55
3 -62 33 -89 26 -23 42 -29 78 -29 39 0 51 5 80 34 29 29 34 41 34 80 0 97
-61 149 -146 125z m59 -30 c77 -35 54 -179 -27 -179 -48 0 -71 30 -71 92 0 42
4 53 28 74 32 27 37 28 70 13z"/>
<path d="M30874 29100 c-12 -5 -25 -13 -29 -19 -9 -16 -25 -13 -25 4 0 8 -7
15 -15 15 -12 0 -15 -20 -15 -120 0 -113 1 -120 20 -120 18 0 20 7 20 88 0 95
12 122 57 122 40 0 53 -30 53 -123 0 -80 2 -87 20 -87 18 0 20 7 20 88 0 98
12 122 63 122 37 0 47 -26 47 -124 0 -79 2 -86 20 -86 19 0 20 7 20 94 0 85
-2 98 -23 122 -17 19 -33 27 -55 26 -36 -1 -72 -18 -72 -34 0 -6 -10 -2 -22 9
-29 26 -57 34 -84 23z"/>
<path d="M28650 29006 c0 -79 3 -97 21 -120 26 -33 84 -36 117 -6 l22 21 0
-21 c0 -13 7 -20 20 -20 19 0 20 7 20 120 0 113 -1 120 -20 120 -18 0 -20 -7
-20 -79 0 -88 -21 -131 -64 -131 -43 0 -56 29 -56 123 0 80 -2 87 -20 87 -19
0 -20 -7 -20 -94z"/>
<path d="M8070 26725 l0 -625 1003 -2 c551 -2 1730 -2 2620 0 l1617 2 0 625 0
625 -2620 0 -2620 0 0 -625z m5195 0 l0 -580 -2575 0 -2575 0 -3 570 c-1 314
0 576 3 583 3 10 524 12 2577 10 l2573 -3 0 -580z"/>
<path d="M11836 27179 c-17 -13 -28 -34 -32 -60 -4 -23 -12 -39 -20 -39 -8 0
-14 -7 -14 -15 0 -8 7 -15 15 -15 12 0 15 -18 15 -105 0 -98 1 -105 20 -105
19 0 20 7 20 105 l0 105 30 0 c39 0 41 27 3 32 -25 3 -28 7 -25 33 4 35 28 58
54 49 13 -4 18 0 18 15 0 28 -48 28 -84 0z"/>
<path d="M10680 27126 l0 -65 -36 15 c-74 31 -144 -24 -144 -114 0 -49 21 -97
49 -112 28 -15 84 -12 107 5 25 19 34 19 34 0 0 -8 8 -15 18 -15 16 0 17 14
14 175 -3 166 -4 175 -22 175 -18 0 -20 -7 -20 -64z m-15 -99 c23 -32 19 -113
-5 -137 -43 -43 -108 -13 -116 55 -11 89 75 147 121 82z"/>
<path d="M9859 27151 c-54 -55 -37 -107 51 -151 44 -22 61 -37 66 -57 14 -53
-37 -85 -106 -67 -32 9 -40 8 -45 -4 -8 -21 -2 -24 54 -30 93 -9 141 20 141
84 0 52 -14 71 -80 104 -62 31 -78 56 -60 90 14 25 52 35 89 22 24 -9 31 -7
36 5 8 23 -12 33 -68 33 -40 0 -53 -5 -78 -29z"/>
<path d="M8955 27148 c-36 -28 -55 -76 -55 -140 0 -113 37 -168 112 -168 49 0
82 31 98 91 15 56 7 148 -16 187 -31 54 -92 67 -139 30z m89 -31 c47 -48 42
-206 -8 -239 -22 -15 -56 -8 -70 15 -37 55 -31 183 9 223 30 30 40 30 69 1z"/>
<path d="M9215 27148 c-36 -28 -55 -76 -55 -140 0 -113 37 -168 112 -168 49 0
82 31 98 91 15 56 7 148 -16 187 -31 54 -92 67 -139 30z m89 -31 c47 -48 42
-206 -8 -239 -22 -15 -56 -8 -70 15 -37 55 -31 183 9 223 30 30 40 30 69 1z"/>
<path d="M8453 27142 c-23 -12 -30 -21 -24 -31 7 -10 13 -10 29 -2 11 6 23 11
26 11 3 0 6 -63 6 -140 0 -133 1 -140 20 -140 19 0 20 7 20 160 0 159 0 160
-22 160 -13 -1 -37 -9 -55 -18z"/>
<path d="M8675 27118 c-3 -24 -9 -58 -12 -75 l-5 -33 46 0 c36 0 52 -6 71 -25
14 -13 25 -33 25 -45 0 -51 -79 -87 -130 -60 -14 7 -20 6 -24 -7 -9 -23 11
-33 67 -33 58 0 99 19 115 55 33 72 -11 145 -87 145 -44 0 -46 3 -35 59 6 30
7 31 65 31 46 0 59 3 59 15 0 12 -15 15 -74 15 l-74 0 -7 -42z"/>
<path d="M10103 27143 c-7 -2 -13 -18 -13 -34 0 -22 -5 -29 -20 -29 -11 0 -20
-7 -20 -15 0 -8 9 -15 20 -15 19 0 20 -7 20 -89 0 -102 10 -121 66 -121 24 0
34 5 34 15 0 9 -9 15 -24 15 -31 0 -36 15 -36 106 l0 74 30 0 c20 0 30 5 30
15 0 10 -10 15 -30 15 -28 0 -30 3 -30 35 0 35 -3 38 -27 28z"/>
<path d="M11353 27143 c-7 -2 -13 -18 -13 -34 0 -22 -5 -29 -20 -29 -11 0 -20
-7 -20 -15 0 -8 9 -15 20 -15 19 0 20 -7 20 -89 0 -102 10 -121 66 -121 24 0
34 5 34 15 0 9 -9 15 -24 15 -31 0 -36 15 -36 106 l0 74 30 0 c20 0 30 5 30
15 0 10 -10 15 -30 15 -28 0 -30 3 -30 35 0 35 -3 38 -27 28z"/>
<path d="M9520 27045 l0 -55 -55 0 c-42 0 -55 -3 -55 -15 0 -12 13 -15 55 -15
l55 0 0 -60 c0 -46 3 -60 15 -60 10 0 15 15 17 58 l3 57 58 3 c42 2 57 7 57
17 0 12 -14 15 -60 15 l-60 0 0 55 c0 42 -3 55 -15 55 -12 0 -15 -13 -15 -55z"/>
<path d="M10843 27075 c-79 -34 -87 -182 -12 -221 47 -24 153 -17 143 9 -3 8
-22 11 -54 9 -42 -3 -53 0 -75 22 -46 46 -35 56 60 56 l85 0 0 30 c0 46 -25
86 -61 99 -40 14 -47 13 -86 -4z m81 -36 c14 -11 26 -29 26 -40 0 -17 -7 -19
-65 -19 -39 0 -65 4 -65 11 0 21 22 50 43 59 31 12 31 12 61 -11z"/>
<path d="M11138 27079 c-16 -6 -28 -15 -28 -20 0 -5 -4 -9 -10 -9 -5 0 -10 7
-10 15 0 8 -8 15 -17 15 -16 0 -18 -11 -15 -120 3 -111 5 -120 23 -120 17 0
19 8 19 85 0 94 16 125 64 125 41 0 56 -34 56 -127 0 -76 2 -83 20 -83 19 0
20 7 20 94 0 84 -3 98 -22 120 -27 30 -63 39 -100 25z"/>
<path d="M11545 27083 c-55 -13 -73 -75 -33 -113 12 -11 28 -20 35 -20 7 0 22
-9 33 -20 17 -17 18 -24 9 -41 -9 -17 -18 -20 -57 -17 -37 2 -47 0 -47 -12 0
-12 13 -15 59 -15 52 0 61 3 79 26 29 40 13 77 -46 107 -32 15 -47 29 -47 42
0 27 32 42 63 31 19 -8 27 -6 31 4 3 8 2 16 -2 18 -15 9 -58 14 -77 10z"/>
<path d="M12025 27078 c-11 -6 -25 -19 -32 -27 -11 -14 -12 -13 -13 7 0 14 -6
22 -17 22 -16 0 -18 -11 -15 -120 3 -111 5 -120 23 -120 17 0 19 7 19 80 0 73
3 83 25 105 13 14 29 25 35 25 5 0 10 9 10 20 0 23 -7 24 -35 8z"/>
<path d="M12165 27082 c-57 -19 -85 -60 -85 -125 0 -42 5 -54 34 -83 28 -28
42 -34 75 -34 83 0 121 40 121 129 0 60 -26 96 -78 111 -40 11 -38 11 -67 2z
m86 -61 c40 -50 8 -151 -48 -151 -55 0 -91 51 -79 113 14 74 83 95 127 38z"/>
<path d="M12458 27078 c-16 -5 -28 -14 -28 -19 0 -5 -4 -9 -10 -9 -5 0 -10 7
-10 15 0 8 -7 15 -15 15 -12 0 -15 -20 -15 -120 0 -113 1 -120 20 -120 18 0
20 7 20 83 0 92 15 127 55 127 40 0 55 -35 55 -127 0 -76 2 -83 20 -83 18 0
20 7 20 88 0 96 12 122 58 122 37 0 52 -36 52 -127 0 -76 2 -83 20 -83 19 0
20 7 20 90 0 104 -11 135 -53 150 -25 8 -38 7 -71 -10 -34 -16 -42 -17 -56 -6
-23 20 -52 25 -82 14z"/>
<path d="M10250 26982 c0 -85 3 -101 20 -120 25 -26 85 -30 118 -6 20 14 22
14 22 0 0 -9 9 -16 20 -16 19 0 20 7 20 120 0 113 -1 120 -20 120 -18 0 -20
-7 -20 -80 0 -73 -3 -83 -25 -105 -58 -59 -95 -18 -95 102 0 76 -2 83 -20 83
-19 0 -20 -7 -20 -98z"/>
<path d="M8990 26415 c0 -168 1 -175 20 -175 19 0 20 7 20 175 0 168 -1 175
-20 175 -19 0 -20 -7 -20 -175z"/>
<path d="M9110 26415 c0 -168 1 -175 20 -175 18 0 20 7 20 85 0 94 16 125 64
125 41 0 56 -34 56 -127 0 -76 2 -83 20 -83 19 0 20 7 20 96 0 93 -1 96 -30
126 -26 25 -36 29 -62 24 -18 -3 -40 -14 -50 -23 -17 -15 -18 -13 -18 55 0 65
-2 72 -20 72 -19 0 -20 -7 -20 -175z"/>
<path d="M8423 26574 c-10 -4 -13 -48 -13 -171 l0 -166 83 5 c137 7 187 54
187 174 0 70 -26 119 -75 143 -30 15 -160 25 -182 15z m140 -38 c50 -21 70
-50 74 -109 7 -96 -49 -157 -144 -157 l-43 0 0 133 c0 74 3 137 7 140 11 12
72 8 106 -7z"/>
<path d="M9390 26565 c-11 -13 -11 -19 3 -33 20 -19 41 -5 35 24 -4 24 -22 28
-38 9z"/>
<path d="M8783 26475 c-79 -34 -87 -182 -12 -221 47 -24 153 -17 143 9 -3 8
-22 11 -54 9 -42 -3 -53 0 -75 22 -46 46 -35 56 60 56 l85 0 0 30 c0 46 -25
86 -61 99 -40 14 -47 13 -86 -4z m81 -36 c14 -11 26 -29 26 -40 0 -17 -7 -19
-65 -19 -39 0 -65 4 -65 11 0 21 22 50 43 59 31 12 31 12 61 -11z"/>
<path d="M9390 26360 c0 -113 1 -120 20 -120 19 0 20 7 20 120 0 113 -1 120
-20 120 -19 0 -20 -7 -20 -120z"/>
<path d="M29328 14363 c-2 -148 -2 -469 0 -715 l3 -448 2254 0 2255 0 0 715 0
715 -2255 0 -2254 0 -3 -267z m4467 -448 l0 -670 -2210 0 -2210 0 -3 660 c-1
363 0 666 3 673 3 10 451 12 2212 10 l2208 -3 0 -670z"/>
<path d="M32790 14367 c-28 -14 -50 -51 -50 -84 0 -14 -6 -23 -15 -23 -8 0
-15 -7 -15 -15 0 -8 7 -15 15 -15 12 0 15 -18 15 -105 0 -98 1 -105 20 -105
19 0 20 7 20 105 l0 105 30 0 c20 0 30 5 30 15 0 10 -10 15 -31 15 -30 0 -31
1 -25 33 7 37 33 60 59 53 13 -3 17 0 15 12 -4 22 -36 26 -68 9z"/>
<path d="M31630 14306 l0 -65 -34 14 c-43 18 -100 4 -122 -30 -36 -55 -26
-159 19 -190 31 -22 89 -19 121 6 l26 20 0 -20 c0 -12 6 -21 15 -21 13 0 15
26 15 175 0 168 -1 175 -20 175 -18 0 -20 -7 -20 -64z m-26 -87 c22 -18 26
-28 26 -75 0 -63 -23 -94 -68 -94 -43 0 -67 33 -67 92 0 42 4 53 28 74 34 29
47 30 81 3z"/>
<path d="M30824 14351 c-47 -21 -69 -87 -41 -125 7 -10 40 -32 73 -49 51 -28
59 -36 62 -64 5 -52 -55 -79 -122 -53 -22 8 -26 7 -26 -9 0 -24 19 -31 80 -31
66 0 110 35 110 89 0 49 -14 67 -86 104 -47 25 -60 38 -62 59 -5 45 59 74 108
48 14 -7 20 -6 24 7 4 9 4 18 1 21 -9 10 -100 12 -121 3z"/>
<path d="M29915 14341 c-68 -28 -98 -165 -56 -258 22 -47 45 -63 93 -63 59 1
92 41 104 127 17 132 -54 229 -141 194z m79 -54 c16 -22 20 -42 20 -100 0 -92
-21 -137 -64 -137 -38 0 -59 31 -67 98 -7 64 2 113 28 147 26 32 55 30 83 -8z"/>
<path d="M30175 14341 c-68 -28 -98 -165 -56 -258 22 -47 45 -63 93 -63 59 1
92 41 104 127 17 132 -54 229 -141 194z m79 -54 c16 -22 20 -42 20 -100 0 -92
-21 -137 -64 -137 -38 0 -59 31 -67 98 -7 64 2 113 28 147 26 32 55 30 83 -8z"/>
<path d="M29600 14325 c0 -12 15 -15 75 -15 44 0 75 -4 75 -10 0 -6 -29 -69
-65 -140 -36 -71 -65 -132 -65 -135 0 -3 9 -5 19 -5 15 0 35 33 90 146 39 81
71 153 71 160 0 11 -22 14 -100 14 -82 0 -100 -3 -100 -15z"/>
<path d="M31053 14323 c-7 -2 -13 -18 -13 -34 0 -22 -5 -29 -20 -29 -11 0 -20
-7 -20 -15 0 -8 9 -15 20 -15 18 0 20 -7 20 -88 0 -101 12 -122 68 -122 40 0
44 27 5 32 -28 3 -28 3 -31 91 l-3 87 31 0 c20 0 30 5 30 15 0 10 -10 15 -30
15 -28 0 -30 3 -30 35 0 35 -3 38 -27 28z"/>
<path d="M32293 14323 c-7 -2 -13 -18 -13 -34 0 -22 -5 -29 -20 -29 -11 0 -20
-7 -20 -15 0 -8 9 -15 20 -15 18 0 20 -7 20 -88 0 -101 12 -122 68 -122 40 0
44 27 5 32 -28 3 -28 3 -31 91 l-3 87 31 0 c20 0 30 5 30 15 0 10 -10 15 -30
15 -28 0 -30 3 -30 35 0 35 -3 38 -27 28z"/>
<path d="M30470 14225 l0 -55 -55 0 c-42 0 -55 -3 -55 -15 0 -12 13 -15 55
-15 l55 0 0 -60 c0 -47 3 -60 15 -60 12 0 15 13 15 60 l0 60 61 0 c81 0 77 24
-4 28 l-57 3 0 54 c0 42 -4 55 -15 55 -12 0 -15 -13 -15 -55z"/>
<path d="M31814 14263 c-12 -2 -34 -17 -49 -33 -22 -23 -29 -42 -33 -85 -4
-52 -3 -56 31 -90 31 -31 41 -35 85 -35 59 0 82 7 76 23 -3 8 -23 11 -58 9
-48 -3 -55 -1 -75 24 -38 48 -30 54 65 54 l87 0 -6 42 c-9 65 -61 104 -123 91z
m66 -43 c11 -11 20 -29 20 -40 0 -18 -7 -20 -65 -20 -74 0 -83 13 -40 55 29
30 58 32 85 5z"/>
<path d="M32084 14260 c-12 -5 -25 -13 -29 -19 -9 -16 -25 -13 -25 4 0 8 -7
15 -15 15 -12 0 -15 -20 -15 -120 0 -113 1 -120 20 -120 18 0 20 7 20 88 0 98
12 122 63 122 42 0 57 -33 57 -127 0 -76 2 -83 20 -83 19 0 20 7 20 94 0 84
-3 98 -22 120 -26 29 -63 39 -94 26z"/>
<path d="M32485 14263 c-32 -8 -55 -34 -55 -63 0 -29 18 -49 66 -73 65 -33 50
-82 -23 -74 -44 5 -67 -8 -42 -24 19 -12 86 -11 110 2 28 14 41 54 28 82 -6
13 -31 34 -55 45 -30 15 -44 28 -44 42 0 27 32 42 64 30 23 -8 26 -7 26 10 0
11 -6 20 -14 20 -8 0 -20 2 -28 4 -7 2 -22 1 -33 -1z"/>
<path d="M32951 14244 c-30 -25 -31 -25 -31 -5 0 12 -6 21 -15 21 -12 0 -15
-20 -15 -120 0 -113 1 -120 20 -120 18 0 20 7 20 83 0 74 3 86 23 105 13 12
29 22 35 22 7 0 12 9 12 20 0 27 -12 25 -49 -6z"/>
<path d="M33114 14259 c-16 -5 -41 -20 -55 -35 -20 -21 -24 -36 -24 -86 0 -55
3 -62 33 -89 26 -23 42 -29 78 -29 39 0 51 5 80 34 29 29 34 41 34 80 0 97
-61 149 -146 125z m59 -30 c77 -35 54 -179 -27 -179 -48 0 -71 30 -71 92 0 42
4 53 28 74 32 27 37 28 70 13z"/>
<path d="M33404 14260 c-12 -5 -25 -13 -29 -19 -9 -16 -25 -13 -25 4 0 8 -7
15 -15 15 -12 0 -15 -20 -15 -120 0 -113 1 -120 20 -120 18 0 20 7 20 88 0 95
12 122 57 122 40 0 53 -30 53 -123 0 -80 2 -87 20 -87 18 0 20 7 20 88 0 98
12 122 63 122 37 0 47 -26 47 -124 0 -79 2 -86 20 -86 19 0 20 7 20 94 0 85
-2 98 -23 122 -17 19 -33 27 -55 26 -36 -1 -72 -18 -72 -34 0 -6 -10 -2 -22 9
-29 26 -57 34 -84 23z"/>
<path d="M31190 14166 c0 -79 3 -97 21 -120 26 -33 84 -36 117 -6 l22 21 0
-21 c0 -13 7 -20 20 -20 19 0 20 7 20 120 0 113 -1 120 -20 120 -18 0 -20 -7
-20 -79 0 -88 -21 -131 -64 -131 -43 0 -56 29 -56 123 0 80 -2 87 -20 87 -19
0 -20 -7 -20 -94z"/>
<path d="M29616 13658 c-4 -57 -9 -133 -13 -170 -5 -63 -4 -68 14 -68 18 0 21
9 26 83 4 45 7 109 7 141 0 33 3 57 6 53 4 -3 27 -67 51 -142 34 -105 48 -135
60 -133 11 2 32 49 62 135 26 73 50 135 54 139 4 4 7 -22 7 -58 0 -36 3 -99 6
-141 6 -68 9 -77 27 -77 21 0 21 -24 1 256 -6 84 -7 85 -32 82 -23 -3 -30 -16
-68 -118 -24 -63 -43 -123 -44 -132 -1 -41 -17 -12 -48 85 -50 153 -57 167
-85 167 -24 0 -25 -3 -31 -102z"/>
<path d="M30023 13753 c-10 -3 -13 -47 -13 -169 0 -157 1 -164 20 -164 18 0
20 7 20 71 0 65 1 70 20 64 31 -10 97 13 119 42 23 28 27 82 10 115 -20 36
-126 62 -176 41z m110 -34 c30 -16 37 -28 37 -65 0 -40 -29 -66 -77 -68 l-38
-1 -3 73 -3 72 31 0 c17 0 41 -5 53 -11z"/>
<path d="M5870 11085 l0 -765 1564 0 1565 0 3 338 c2 185 2 529 0 765 l-3 427
-1565 0 -1564 0 0 -765z m3085 0 l0 -720 -1520 0 -1520 0 -3 710 c-1 391 0
716 3 723 3 10 313 12 1522 10 l1518 -3 0 -720z"/>
<path d="M7920 11366 l0 -54 -29 14 c-26 13 -34 13 -65 0 -43 -18 -56 -42 -56
-101 0 -35 6 -51 25 -70 29 -29 79 -33 107 -8 17 15 18 15 18 0 0 -10 7 -17
15 -17 13 0 15 23 15 145 0 122 -2 145 -15 145 -11 0 -15 -13 -15 -54z m-18
-73 c26 -23 25 -96 -2 -123 -36 -36 -82 -18 -96 36 -19 73 48 133 98 87z"/>
<path d="M7237 11399 c-26 -15 -38 -54 -27 -83 5 -14 31 -36 62 -53 41 -22 54
-34 56 -55 5 -40 -37 -65 -84 -50 -23 7 -36 7 -40 0 -10 -16 17 -28 64 -28 54
0 76 11 91 48 18 44 1 76 -61 109 -54 28 -68 53 -48 83 6 10 24 14 55 13 32
-1 45 2 42 10 -5 16 -87 20 -110 6z"/>
<path d="M6068 11384 c-16 -8 -28 -22 -28 -31 0 -13 3 -14 12 -5 32 32 38 14
38 -103 0 -96 3 -115 15 -115 13 0 15 22 15 135 0 146 -1 147 -52 119z"/>
<path d="M6251 11373 c-28 -35 -34 -62 -29 -133 3 -45 10 -66 28 -85 28 -30
78 -33 109 -7 46 39 52 172 10 226 -29 37 -89 37 -118 -1z m93 -15 c11 -15 16
-45 16 -93 0 -104 -39 -146 -86 -94 -15 17 -19 36 -19 94 0 58 4 77 19 94 25
27 51 27 70 -1z"/>
<path d="M6461 11373 c-28 -35 -34 -62 -29 -133 3 -45 10 -66 28 -85 28 -30
78 -33 109 -7 46 39 52 172 10 226 -29 37 -89 37 -118 -1z m93 -15 c11 -15 16
-45 16 -93 0 -104 -39 -146 -86 -94 -15 17 -19 36 -19 94 0 58 4 77 19 94 25
27 51 27 70 -1z"/>
<path d="M6681 11373 c-28 -35 -34 -62 -29 -133 3 -45 10 -66 28 -85 28 -30
78 -33 109 -7 46 39 52 172 10 226 -29 37 -89 37 -118 -1z m93 -15 c11 -15 16
-45 16 -93 0 -104 -39 -146 -86 -94 -15 17 -19 36 -19 94 0 58 4 77 19 94 25
27 51 27 70 -1z"/>
<path d="M7433 11383 c-7 -3 -13 -16 -13 -29 0 -15 -6 -24 -15 -24 -8 0 -15
-4 -15 -10 0 -5 7 -10 15 -10 12 0 15 -15 15 -71 0 -86 11 -109 50 -109 17 0
30 5 30 10 0 6 -7 10 -15 10 -24 0 -36 37 -33 98 3 54 4 57 31 60 36 4 35 22
-2 22 -25 0 -30 4 -33 28 -2 18 -8 27 -15 25z"/>
<path d="M8473 11383 c-7 -3 -13 -16 -13 -29 0 -15 -6 -24 -15 -24 -8 0 -15
-4 -15 -10 0 -5 7 -10 15 -10 12 0 15 -15 15 -71 0 -86 11 -109 50 -109 17 0
30 5 30 10 0 6 -7 10 -15 10 -24 0 -36 37 -33 98 3 54 4 57 31 60 36 4 35 22
-2 22 -25 0 -30 4 -33 28 -2 18 -8 27 -15 25z"/>
<path d="M6950 11300 l0 -50 -45 0 c-25 0 -45 -4 -45 -10 0 -5 20 -10 45 -10
l45 0 0 -51 c0 -66 24 -62 28 4 l3 47 45 0 c24 0 44 5 44 10 0 6 -20 10 -45
10 l-45 0 0 50 c0 38 -4 50 -15 50 -11 0 -15 -12 -15 -50z"/>
<path d="M8047 11324 c-53 -29 -66 -126 -22 -170 21 -21 33 -25 77 -22 28 2
53 8 55 14 3 8 -10 10 -40 7 -36 -4 -49 -1 -66 16 -39 39 -28 51 49 51 l70 0
0 29 c0 36 -35 78 -70 85 -14 3 -38 -1 -53 -10z m77 -30 c31 -31 20 -44 -39
-44 -59 0 -63 4 -39 38 18 26 56 29 78 6z"/>
<path d="M8300 11333 c-8 -3 -23 -12 -32 -21 -16 -14 -18 -13 -18 1 0 10 -7
17 -15 17 -12 0 -15 -18 -15 -100 0 -93 1 -100 20 -100 18 0 20 7 20 74 0 79
13 106 50 106 33 0 50 -39 50 -112 0 -54 3 -68 15 -68 23 0 21 150 -2 178 -20
23 -50 33 -73 25z"/>
<path d="M8623 11330 c-12 -5 -27 -18 -33 -30 -15 -28 6 -62 50 -80 25 -10 30
-18 28 -39 -3 -24 -6 -26 -46 -24 -49 2 -55 -20 -8 -25 46 -6 76 7 87 35 12
33 -7 65 -51 83 -23 9 -30 18 -28 34 2 17 10 21 37 22 19 0 36 5 39 12 2 7 -3
12 -11 12 -9 0 -21 2 -29 4 -7 3 -23 1 -35 -4z"/>
<path d="M7550 11259 c0 -68 11 -106 34 -121 19 -13 60 -9 84 8 20 14 22 14
22 0 0 -9 7 -16 15 -16 12 0 15 18 15 100 0 93 -1 100 -20 100 -18 0 -20 -7
-20 -75 0 -68 -2 -76 -24 -90 -19 -13 -29 -14 -45 -5 -19 9 -21 20 -21 90 0
73 -2 80 -20 80 -18 0 -20 -7 -20 -71z"/>
<path d="M6058 10920 c-9 -6 -22 -27 -29 -48 -6 -20 -17 -41 -23 -45 -8 -6 -7
-10 2 -14 8 -3 12 -32 12 -94 0 -82 1 -89 20 -89 19 0 20 7 20 90 0 89 0 90
25 90 14 0 25 5 25 10 0 6 -11 10 -25 10 -18 0 -25 5 -25 19 0 35 12 51 36 51
15 0 24 6 24 15 0 17 -36 20 -62 5z"/>
<path d="M6930 10770 c0 -133 1 -140 20 -140 18 0 20 7 20 55 0 51 2 55 24 55
37 0 86 20 96 40 6 10 10 34 10 54 0 51 -36 76 -111 76 l-59 0 0 -140z m128
93 c30 -41 0 -93 -55 -93 l-33 0 0 53 c0 30 3 57 7 61 12 12 67 -3 81 -21z"/>
<path d="M6196 10819 c-21 -17 -26 -18 -26 -5 0 9 -7 16 -15 16 -12 0 -15 -18
-15 -100 0 -93 1 -100 20 -100 18 0 20 7 20 73 0 75 9 97 42 97 11 0 18 7 18
20 0 25 -11 25 -44 -1z"/>
<path d="M6313 10825 c-40 -17 -53 -42 -53 -98 0 -33 6 -51 25 -71 55 -60 165
-14 165 69 0 51 -24 91 -61 104 -39 13 -37 13 -76 -4z m83 -36 c28 -31 25 -96
-5 -120 -32 -26 -56 -24 -80 7 -58 73 23 181 85 113z"/>
<path d="M6556 10819 c-21 -17 -26 -18 -26 -5 0 9 -7 16 -15 16 -12 0 -15 -18
-15 -100 0 -93 1 -100 20 -100 18 0 20 7 20 74 0 54 4 79 16 90 41 42 74 -1
74 -96 0 -54 3 -68 15 -68 12 0 15 15 15 73 0 76 15 107 51 107 30 0 39 -24
39 -102 0 -73 1 -78 21 -78 20 0 21 4 18 85 -3 63 -8 89 -21 101 -21 22 -72
22 -95 1 -17 -14 -20 -14 -42 4 -30 24 -42 24 -75 -2z"/>
<path d="M7460 10833 c-8 -3 -23 -12 -32 -21 -16 -14 -18 -13 -18 1 0 10 -7
17 -15 17 -12 0 -15 -18 -15 -100 0 -93 1 -100 20 -100 18 0 20 7 20 74 0 79
13 106 50 106 33 0 50 -39 50 -112 0 -54 3 -68 15 -68 23 0 21 150 -2 178 -20
23 -50 33 -73 25z"/>
<path d="M7647 10824 c-53 -29 -66 -126 -22 -170 21 -21 33 -25 77 -22 28 2
53 8 55 14 3 8 -10 10 -40 7 -36 -4 -49 -1 -66 16 -39 39 -28 51 49 51 l70 0
0 29 c0 36 -35 78 -70 85 -14 3 -38 -1 -53 -10z m77 -30 c31 -31 20 -44 -39
-44 -59 0 -63 4 -39 38 18 26 56 29 78 6z"/>
<path d="M7150 10759 c0 -68 11 -106 34 -121 19 -13 60 -9 84 8 20 14 22 14
22 0 0 -9 7 -16 15 -16 12 0 15 18 15 100 0 93 -1 100 -20 100 -18 0 -20 -7
-20 -75 0 -68 -2 -76 -24 -90 -19 -13 -29 -14 -45 -5 -19 9 -21 20 -21 90 0
73 -2 80 -20 80 -18 0 -20 -7 -20 -71z"/>
<path d="M28988 9213 c-2 -186 -2 -440 0 -565 l3 -228 2300 0 2299 0 0 565 0
565 -2299 0 -2299 0 -4 -337z m4557 -228 l0 -520 -2255 0 -2255 0 -3 510 c-1
281 0 516 3 523 3 10 460 12 2257 10 l2253 -3 0 -520z"/>
<path d="M32245 9395 c-16 -15 -25 -36 -25 -55 0 -20 -5 -30 -15 -30 -8 0 -15
-7 -15 -15 0 -8 7 -15 15 -15 12 0 15 -17 15 -95 0 -88 1 -95 20 -95 19 0 20
7 20 95 0 95 0 95 25 95 16 0 25 6 25 15 0 9 -9 15 -25 15 -21 0 -25 5 -25 28
0 34 16 52 47 52 14 0 23 6 23 15 0 25 -57 19 -85 -10z"/>
<path d="M31190 9351 l0 -60 -35 15 c-71 30 -135 -20 -135 -106 0 -66 35 -110
89 -110 20 0 47 7 59 16 20 14 22 14 22 0 0 -9 8 -16 18 -16 16 0 17 13 14
160 -2 132 -6 160 -17 160 -12 0 -15 -14 -15 -59z m-33 -76 c12 -9 25 -31 29
-49 11 -62 -16 -106 -66 -106 -60 0 -83 98 -35 145 28 29 42 31 72 10z"/>
<path d="M30437 9380 c-21 -17 -27 -30 -27 -59 0 -43 17 -62 73 -86 20 -8 44
-26 53 -40 15 -23 15 -27 -1 -51 -16 -25 -20 -26 -76 -20 -46 4 -59 3 -59 -8
0 -19 22 -26 79 -26 66 0 101 28 101 79 0 47 -17 70 -70 95 -58 28 -75 54 -54
85 13 19 24 22 63 20 35 -3 46 0 46 11 0 11 -14 16 -51 18 -39 2 -56 -2 -77
-18z"/>
<path d="M29356 9363 c-3 -16 -8 -47 -11 -69 l-6 -41 46 -6 c74 -8 102 -53 64
-102 -20 -25 -27 -27 -71 -23 -49 5 -72 -7 -47 -23 20 -13 97 -11 122 3 34 18
46 40 47 84 0 49 -27 79 -82 89 -35 7 -38 10 -38 41 l0 34 60 0 c53 0 60 2 60
20 0 18 -7 20 -69 20 -68 0 -70 -1 -75 -27z"/>
<path d="M29611 9374 c-32 -23 -51 -74 -51 -138 0 -63 11 -97 40 -126 28 -28
90 -27 118 3 28 29 44 107 36 170 -12 89 -82 133 -143 91z m85 -35 c15 -17 19
-36 19 -93 0 -109 -36 -157 -87 -116 -19 15 -23 30 -26 92 -3 56 0 83 12 107
20 37 53 41 82 10z"/>
<path d="M29841 9374 c-32 -23 -51 -74 -51 -138 0 -63 11 -97 40 -126 28 -28
90 -27 118 3 28 29 44 107 36 170 -12 89 -82 133 -143 91z m85 -35 c15 -17 19
-36 19 -93 0 -109 -36 -157 -87 -116 -19 15 -23 30 -26 92 -3 56 0 83 12 107
20 37 53 41 82 10z"/>
<path d="M30647 9363 c-4 -3 -7 -17 -7 -30 0 -14 -6 -23 -15 -23 -8 0 -15 -7
-15 -15 0 -8 7 -15 15 -15 12 0 15 -14 15 -67 0 -90 14 -117 63 -121 28 -2 37
0 37 12 0 10 -9 16 -24 16 -30 0 -36 16 -36 96 l0 64 30 0 c20 0 30 5 30 15 0
10 -10 15 -30 15 -27 0 -30 3 -30 30 0 28 -17 40 -33 23z"/>
<path d="M31797 9363 c-4 -3 -7 -17 -7 -30 0 -14 -6 -23 -15 -23 -8 0 -15 -7
-15 -15 0 -8 7 -15 15 -15 12 0 15 -14 15 -67 0 -90 14 -117 63 -121 28 -2 37
0 37 12 0 10 -9 16 -24 16 -30 0 -36 16 -36 96 l0 64 30 0 c20 0 30 5 30 15 0
10 -10 15 -30 15 -27 0 -30 3 -30 30 0 28 -17 40 -33 23z"/>
<path d="M30130 9275 l0 -55 -50 0 c-27 0 -50 -4 -50 -10 0 -5 23 -10 50 -10
l50 0 0 -55 c0 -42 3 -55 15 -55 12 0 15 13 15 55 l0 55 50 0 c64 0 66 18 3
22 l-48 3 -3 53 c-2 37 -7 52 -18 52 -10 0 -14 -14 -14 -55z"/>
<path d="M31345 9311 c-39 -17 -58 -50 -63 -106 -4 -50 -2 -56 27 -85 28 -28
35 -31 86 -28 66 4 74 23 11 23 -48 1 -80 21 -89 56 -5 18 1 19 75 19 l81 0
-6 41 c-3 23 -14 50 -24 60 -22 22 -70 32 -98 20z m67 -38 c10 -9 18 -24 18
-35 0 -15 -8 -18 -55 -18 -48 0 -55 3 -55 19 0 21 35 51 59 51 8 0 23 -7 33
-17z"/>
<path d="M31600 9309 c-13 -5 -28 -15 -32 -22 -5 -8 -8 -6 -8 6 0 10 -8 17
-20 17 -19 0 -20 -7 -20 -110 0 -103 1 -110 20 -110 18 0 20 7 20 71 0 76 9
102 41 119 16 9 26 8 45 -5 22 -14 24 -21 24 -100 0 -78 2 -85 20 -85 19 0 20
7 20 89 0 70 -4 93 -17 109 -22 26 -60 34 -93 21z"/>
<path d="M31973 9313 c-31 -6 -45 -27 -41 -65 2 -27 11 -37 46 -56 26 -15 42
-30 42 -42 0 -27 -33 -42 -64 -30 -16 6 -27 6 -31 0 -12 -20 7 -30 54 -30 57
0 84 23 79 66 -3 27 -14 38 -84 80 -31 19 -5 50 40 47 26 -2 36 2 36 12 0 8
-6 15 -14 15 -8 0 -20 2 -28 4 -7 2 -23 1 -35 -1z"/>
<path d="M32415 9308 c-11 -6 -23 -16 -27 -22 -5 -7 -8 -4 -8 7 0 10 -8 17
-20 17 -19 0 -20 -7 -20 -110 0 -103 1 -110 20 -110 18 0 20 7 20 64 0 81 12
114 45 122 16 4 25 13 25 25 0 22 -7 23 -35 7z"/>
<path d="M32534 9306 c-45 -20 -64 -52 -64 -109 0 -66 38 -107 100 -107 23 0
50 5 61 10 27 15 49 63 49 109 0 76 -77 127 -146 97z m81 -41 c50 -49 23 -147
-40 -147 -63 0 -90 98 -40 147 13 14 31 25 40 25 9 0 27 -11 40 -25z"/>
<path d="M32815 9308 c-11 -6 -23 -16 -27 -22 -5 -7 -8 -4 -8 7 0 10 -8 17
-20 17 -19 0 -20 -7 -20 -110 0 -103 1 -110 20 -110 18 0 20 7 20 75 0 68 3
79 25 101 24 24 28 25 48 11 19 -13 22 -25 25 -101 3 -78 5 -86 22 -86 18 0
20 7 20 78 0 48 5 84 13 94 21 26 46 29 67 8 17 -17 20 -34 20 -100 0 -73 2
-80 20 -80 18 0 20 7 20 80 0 92 -16 134 -54 144 -27 7 -70 -6 -81 -24 -5 -8
-12 -7 -23 4 -24 21 -64 28 -87 14z"/>
<path d="M30782 9220 c3 -68 8 -94 23 -110 22 -25 76 -27 110 -4 23 15 25 15
25 0 0 -9 7 -16 15 -16 12 0 15 19 15 110 0 103 -1 110 -20 110 -18 0 -20 -7
-20 -78 0 -85 -14 -112 -58 -112 -36 0 -52 37 -52 117 0 68 -2 73 -21 73 -21
0 -21 -4 -17 -90z"/>
<path d="M29411 8828 c-5 -13 -29 -83 -54 -155 -46 -132 -46 -133 -24 -133 19
0 26 9 38 48 l14 47 55 0 54 0 17 -45 c11 -31 23 -46 37 -48 19 -3 17 8 -31
152 -47 141 -54 156 -75 156 -14 0 -26 -8 -31 -22z m48 -75 c7 -27 15 -56 18
-65 5 -15 -1 -18 -37 -18 -36 0 -42 3 -37 18 3 9 11 38 18 65 7 26 16 47 19
47 3 0 12 -21 19 -47z"/>
<path d="M29620 8696 c0 -132 2 -156 15 -156 12 0 15 13 15 59 l0 58 51 7 c67
9 99 40 99 94 0 65 -24 85 -109 90 l-71 4 0 -156z m125 110 c23 -16 24 -71 3
-93 -9 -8 -34 -16 -55 -17 l-38 -1 -3 63 -3 62 39 0 c21 0 47 -6 57 -14z"/>
<path d="M11908 5943 c7 -3 16 -2 19 1 4 3 -2 6 -13 5 -11 0 -14 -3 -6 -6z"/>
</g>
</svg>
